<svg xmlns="http://www.w3.org/2000/svg" viewBox="0 0 512 512" width="40" height="40">
	<style>
		tspan { white-space:pre }
		.shp0 { fill: #000000 } 
	</style>
	<g id="Layer">
		<g id="Layer">
			<path id="Layer" class="shp0" d="M382.56 233.38C379.97 227.65 374.27 224 368 224L304 224L304 16C304 7.17 296.83 0 288 0L224 0C215.17 0 208 7.17 208 16L208 224L144 224C137.73 224 132.03 227.68 129.44 233.38C126.82 239.1 127.84 245.79 131.97 250.53L243.97 378.53C247.01 382.02 251.39 384 256 384C260.61 384 264.99 381.98 268.03 378.53L380.03 250.53C384.19 245.82 385.15 239.1 382.56 233.38Z" />
		</g>
	</g>
	<g id="Layer">
		<g id="Layer">
			<path id="Layer" class="shp0" d="M432 352L432 448L80 448L80 352L16 352L16 480C16 497.7 30.34 512 48 512L464 512C481.7 512 496 497.7 496 480L496 352L432 352Z" />
		</g>
	</g>
	<g id="Layer">
	</g>
	<g id="Layer">
	</g>
	<g id="Layer">
	</g>
	<g id="Layer">
	</g>
	<g id="Layer">
	</g>
	<g id="Layer">
	</g>
	<g id="Layer">
	</g>
	<g id="Layer">
	</g>
	<g id="Layer">
	</g>
	<g id="Layer">
	</g>
	<g id="Layer">
	</g>
	<g id="Layer">
	</g>
	<g id="Layer">
	</g>
	<g id="Layer">
	</g>
	<g id="Layer">
	</g>
</svg>